<svg width="40" height="60" viewBox="0 0 40 60" fill="none" xmlns="http://www.w3.org/2000/svg">
<rect y="4.28564" width="40" height="55.7143" rx="2" fill="white"/>
<rect x="2.75" y="6.85718" width="34.5" height="50.5714" rx="1.5" stroke="black" stroke-width="3"/>
<mask id="mask0_918_1260" style="mask-type:alpha" maskUnits="userSpaceOnUse" x="7" y="10" width="27" height="37">
<path d="M14.79 38.4805L13.4229 42.6064C13.0811 43.6481 12.487 44.5189 11.6406 45.2188C10.7943 45.9023 9.84212 46.2441 8.78418 46.2441C8.52376 46.2441 8.30404 46.1709 8.125 46.0244C7.96224 45.8942 7.88086 45.6989 7.88086 45.4385C7.88086 45.3408 7.91341 45.1943 7.97852 44.999L10.3223 38.2852C10.4362 37.9434 10.5583 37.6829 10.6885 37.5039C10.8187 37.3086 10.9977 37.1702 11.2256 37.0889C11.4697 37.0075 11.6813 36.9587 11.8604 36.9424C12.0557 36.9261 12.3812 36.918 12.8369 36.918C13.2113 36.918 13.488 36.9261 13.667 36.9424C13.846 36.9424 14.0495 36.9668 14.2773 37.0156C14.5215 37.0645 14.6924 37.154 14.79 37.2842C14.8877 37.3981 14.9365 37.5609 14.9365 37.7725C14.9365 37.9189 14.8877 38.1549 14.79 38.4805ZM22.8223 12.04L33.2227 42.2891C33.3366 42.8099 33.3936 43.1029 33.3936 43.168C33.3936 43.8678 32.9867 44.5596 32.1729 45.2432C31.359 45.9105 30.6429 46.2441 30.0244 46.2441C29.4873 46.2441 29.0723 45.8291 28.7793 44.999L18.623 15.3604C18.4603 14.6279 18.3789 14.2373 18.3789 14.1885C18.3789 13.4723 18.8265 12.7643 19.7217 12.0645C20.6331 11.3483 21.333 10.9902 21.8213 10.9902C22.098 10.9902 22.2933 11.0635 22.4072 11.21C22.5374 11.3402 22.6758 11.6169 22.8223 12.04ZM22.3828 35.4531H12.4707C11.8522 35.4531 11.543 35.1846 11.543 34.6475C11.543 34.501 11.5755 34.3382 11.6406 34.1592L16.6455 19.1934C16.8734 18.5586 17.1338 18.2412 17.4268 18.2412C17.6872 18.2412 17.915 18.404 18.1104 18.7295C18.3057 19.0387 18.5173 19.5433 18.7451 20.2432C19.1683 21.5615 19.3799 22.5462 19.3799 23.1973C19.3799 23.653 19.2985 24.1331 19.1357 24.6377L17.2314 30.4482C17.1989 30.5296 17.1826 30.6436 17.1826 30.79C17.1826 31.2295 17.4349 31.4492 17.9395 31.4492H20.4785C21.3086 31.4492 21.8701 31.4899 22.1631 31.5713C22.4561 31.6527 22.6921 31.8805 22.8711 32.2549C23.0339 32.5804 23.1641 33.0036 23.2617 33.5244C23.3757 34.029 23.4326 34.4033 23.4326 34.6475C23.4326 35.1846 23.0827 35.4531 22.3828 35.4531Z" fill="white"/>
</mask>
<g mask="url(#mask0_918_1260)">
<rect y="4.28564" width="40" height="55.7143" fill="black"/>
</g>
</svg>
