<svg width="322" height="321" viewBox="0 0 322 321" fill="none" xmlns="http://www.w3.org/2000/svg">
<g filter="url(#filter0_dddddd_853_591)">
<path d="M153.791 182.836C154.502 182.53 155 181.823 155 181V175.6C155 175.403 155.016 175.198 155.041 174.99C155.027 174.994 155.014 174.997 155 175C155 175 152 175 151.4 175C149.9 175 148.6 174.4 148 173.2C147.3 171.9 147 169.7 145.2 168.5C144.9 168.3 145.1 168 145.7 168C146.3 168.1 147.6 168.9 148.4 170C149.3 171.1 150.2 172 151.8 172C154.287 172 155.62 171.875 156.422 171.445C157.356 170.056 158.649 169 160 169V168.975C154.332 168.793 150.711 166.909 149.025 164C145.36 164.042 142.169 164.405 140.348 164.707C140.29 164.38 140.24 164.051 140.197 163.72C141.994 163.424 145.04 163.073 148.542 163.006C148.43 162.73 148.333 162.447 148.251 162.157C144.74 161.979 141.71 162.118 140.064 162.254C140.044 161.922 140.017 161.591 140.013 161.255C141.662 161.12 144.61 160.985 148.031 161.144C147.952 160.644 147.901 160.133 147.901 159.601C147.901 157.901 148.501 156.101 149.601 154.601C149.101 152.901 148.401 149.301 149.801 148.001C152.501 148.001 154.401 149.301 155.301 150.101C157 149.4 158.9 149 161 149C163.1 149 165 149.4 166.6 150.1C167.5 149.3 169.4 148 172.1 148C173.6 149.4 172.8 153 172.3 154.6C173.4 156.1 174 157.8 173.9 159.6C173.9 160.084 173.855 160.551 173.79 161.009C177.289 160.837 180.317 160.975 181.994 161.111C181.992 161.448 181.961 161.777 181.943 162.11C180.272 161.972 177.168 161.83 173.584 162.021C173.495 162.357 173.387 162.684 173.259 163.001C176.805 163.047 179.924 163.39 181.807 163.69C181.764 164.022 181.714 164.351 181.656 164.677C179.744 164.371 176.485 164.013 172.777 163.995C171.112 166.873 167.557 168.75 162 168.969V169C164.6 169 167 172.9 167 175.6V181C167 181.823 167.498 182.53 168.209 182.836C177.37 179.804 184 171.164 184 161C184 148.318 173.683 138 161 138C148.317 138 138 148.318 138 161C138 171.164 144.63 179.804 153.791 182.836Z" fill="white"/>
</g>
<defs>
<filter id="filter0_dddddd_853_591" x="-2" y="-2" width="326" height="326" filterUnits="userSpaceOnUse" color-interpolation-filters="sRGB">
<feFlood flood-opacity="0" result="BackgroundImageFix"/>
<feColorMatrix in="SourceAlpha" type="matrix" values="0 0 0 0 0 0 0 0 0 0 0 0 0 0 0 0 0 0 127 0" result="hardAlpha"/>
<feOffset/>
<feGaussianBlur stdDeviation="2.25"/>
<feColorMatrix type="matrix" values="0 0 0 0 1 0 0 0 0 1 0 0 0 0 1 0 0 0 1 0"/>
<feBlend mode="normal" in2="BackgroundImageFix" result="effect1_dropShadow_853_591"/>
<feColorMatrix in="SourceAlpha" type="matrix" values="0 0 0 0 0 0 0 0 0 0 0 0 0 0 0 0 0 0 127 0" result="hardAlpha"/>
<feOffset/>
<feGaussianBlur stdDeviation="4.5"/>
<feColorMatrix type="matrix" values="0 0 0 0 1 0 0 0 0 1 0 0 0 0 1 0 0 0 1 0"/>
<feBlend mode="normal" in2="effect1_dropShadow_853_591" result="effect2_dropShadow_853_591"/>
<feColorMatrix in="SourceAlpha" type="matrix" values="0 0 0 0 0 0 0 0 0 0 0 0 0 0 0 0 0 0 127 0" result="hardAlpha"/>
<feOffset/>
<feGaussianBlur stdDeviation="15.75"/>
<feColorMatrix type="matrix" values="0 0 0 0 1 0 0 0 0 1 0 0 0 0 1 0 0 0 1 0"/>
<feBlend mode="normal" in2="effect2_dropShadow_853_591" result="effect3_dropShadow_853_591"/>
<feColorMatrix in="SourceAlpha" type="matrix" values="0 0 0 0 0 0 0 0 0 0 0 0 0 0 0 0 0 0 127 0" result="hardAlpha"/>
<feOffset/>
<feGaussianBlur stdDeviation="31.5"/>
<feColorMatrix type="matrix" values="0 0 0 0 1 0 0 0 0 1 0 0 0 0 1 0 0 0 1 0"/>
<feBlend mode="normal" in2="effect3_dropShadow_853_591" result="effect4_dropShadow_853_591"/>
<feColorMatrix in="SourceAlpha" type="matrix" values="0 0 0 0 0 0 0 0 0 0 0 0 0 0 0 0 0 0 127 0" result="hardAlpha"/>
<feOffset/>
<feGaussianBlur stdDeviation="54"/>
<feColorMatrix type="matrix" values="0 0 0 0 1 0 0 0 0 1 0 0 0 0 1 0 0 0 1 0"/>
<feBlend mode="normal" in2="effect4_dropShadow_853_591" result="effect5_dropShadow_853_591"/>
<feColorMatrix in="SourceAlpha" type="matrix" values="0 0 0 0 0 0 0 0 0 0 0 0 0 0 0 0 0 0 127 0" result="hardAlpha"/>
<feOffset/>
<feGaussianBlur stdDeviation="69"/>
<feColorMatrix type="matrix" values="0 0 0 0 1 0 0 0 0 1 0 0 0 0 1 0 0 0 1 0"/>
<feBlend mode="normal" in2="effect5_dropShadow_853_591" result="effect6_dropShadow_853_591"/>
<feBlend mode="normal" in="SourceGraphic" in2="effect6_dropShadow_853_591" result="shape"/>
</filter>
</defs>
</svg>
